<?xml version="1.0" standalone="no"?>
<!DOCTYPE svg PUBLIC "-//W3C//DTD SVG 20010904//EN"
 "http://www.w3.org/TR/2001/REC-SVG-20010904/DTD/svg10.dtd">
<svg version="1.0" xmlns="http://www.w3.org/2000/svg"
 width="508.000000pt" height="508.000000pt" viewBox="0 0 508.000000 508.000000"
 preserveAspectRatio="xMidYMid meet">
<metadata>
Created by potrace 1.11, written by Peter Selinger 2001-2013
</metadata>
<g transform="translate(0.000000,508.000000) scale(0.100000,-0.100000)"
fill="#000000" stroke="none">
<path d="M2590 5068 c-30 -12 -63 -16 -70 -8 -5 6 -181 -4 -255 -13 -46 -6
-146 -38 -141 -45 2 -4 -11 -7 -28 -8 -18 0 -46 -10 -63 -22 -17 -12 -33 -19
-37 -15 -3 3 -6 1 -6 -5 0 -7 -9 -12 -19 -12 -11 0 -21 -4 -23 -8 -1 -4 -28
-23 -58 -41 -71 -43 -100 -70 -100 -93 0 -20 15 -24 26 -7 3 6 14 9 23 6 9 -2
23 2 30 10 11 12 15 12 28 -4 8 -10 12 -12 8 -5 -3 6 2 20 11 30 17 16 17 16
12 -5 -3 -13 -2 -23 3 -23 5 0 9 6 9 13 0 9 3 8 9 -2 10 -16 31 -6 31 14 0 8
7 11 20 8 12 -3 29 2 39 11 10 9 21 13 24 9 4 -3 7 1 7 10 0 11 7 15 22 12 12
-3 28 1 36 7 8 7 19 13 26 14 6 2 38 10 71 20 33 9 68 17 78 18 9 0 17 3 17 7
0 4 15 7 33 7 17 0 61 3 97 6 36 3 85 8 109 11 24 2 47 9 51 15 6 9 9 9 15 1
5 -8 13 -5 26 10 15 17 19 19 19 6 0 -12 10 -15 43 -14 48 1 134 -12 157 -23
8 -4 47 -11 85 -15 49 -4 76 -12 91 -26 40 -37 94 -59 121 -48 l25 9 -33 38
c-47 53 -173 121 -230 123 -24 1 -60 8 -79 17 -42 18 -223 26 -260 10z"/>
<path d="M3198 4714 c-102 -52 -215 -94 -266 -100 -26 -3 -49 -7 -52 -9 -22
-13 -215 -28 -390 -31 -113 -1 -221 -5 -240 -8 -28 -5 -31 -4 -12 4 12 5 22
11 22 13 0 2 -26 4 -57 4 -32 0 -91 1 -131 3 -44 1 -78 -2 -85 -9 -14 -14 -40
-15 -32 -1 3 6 -2 10 -12 9 -22 -1 -62 -17 -48 -20 45 -8 73 -11 160 -12 55
-1 105 -5 110 -9 6 -4 40 -8 75 -9 36 -2 68 -7 71 -12 8 -11 242 -15 301 -5
49 9 94 -4 83 -23 -4 -5 8 -9 27 -8 18 0 27 3 21 6 -7 2 -13 9 -13 14 0 6 4 8
9 4 5 -3 12 -2 15 3 3 5 32 8 65 8 32 -1 57 3 54 8 -3 5 6 7 21 4 29 -6 153
35 148 48 -2 5 1 10 7 12 6 2 14 -3 17 -12 3 -9 11 -13 18 -9 6 4 3 -5 -7 -20
-17 -26 -17 -27 4 -27 22 0 22 0 3 -21 -19 -21 -21 -76 -4 -93 15 -15 12 -46
-5 -46 -8 0 -15 6 -15 12 0 7 -7 3 -15 -8 -21 -31 -34 -98 -23 -118 7 -12 4
-21 -14 -35 -21 -18 -22 -21 -9 -56 11 -32 11 -39 -3 -54 -17 -19 -23 -121 -8
-121 5 0 9 -7 9 -15 0 -8 -5 -12 -10 -8 -5 3 -6 -4 -1 -18 4 -13 6 -35 4 -49
-2 -14 -3 -46 -3 -72 0 -29 -4 -48 -11 -48 -8 0 -8 -2 0 -8 6 -4 14 -17 18
-29 6 -18 4 -22 -7 -17 -11 4 -14 -2 -11 -27 2 -18 9 -36 14 -39 6 -4 8 -14 4
-23 -3 -10 -2 -23 4 -30 5 -6 13 -23 16 -37 6 -20 5 -22 -4 -10 -11 13 -11 13
-7 0 13 -38 33 -70 43 -70 7 0 15 -7 18 -16 3 -8 2 -12 -4 -9 -6 3 -10 -2 -10
-12 0 -15 -3 -15 -19 6 -16 21 -19 21 -24 6 -8 -18 0 -59 16 -90 15 -27 17
-45 6 -45 -5 0 -7 -21 -4 -47 13 -111 22 -153 52 -253 15 -47 27 -104 29 -128
1 -23 5 -50 9 -60 4 -9 8 -33 10 -52 2 -19 13 -66 25 -105 12 -38 23 -83 25
-100 7 -63 37 -177 45 -165 5 8 9 7 13 -4 4 -9 3 -16 -2 -16 -15 0 10 -134 49
-265 7 -23 29 -123 35 -155 0 -3 9 -18 19 -33 14 -21 16 -33 9 -50 -7 -15 -6
-35 3 -64 7 -24 16 -65 19 -91 3 -26 10 -65 16 -87 6 -22 12 -51 14 -65 1 -14
3 -25 4 -25 3 0 15 -98 20 -155 1 -11 3 -12 9 -3 4 7 9 -6 10 -30 1 -23 4 -52
6 -65 3 -12 1 -22 -4 -22 -12 0 -4 -117 10 -155 6 -16 8 -35 5 -43 -3 -9 -8
-50 -11 -91 -2 -42 -9 -103 -14 -135 -5 -33 -8 -62 -6 -64 3 -2 -1 -20 -8 -40
-7 -21 -12 -45 -10 -54 1 -10 -2 -18 -7 -18 -5 0 -9 -5 -9 -11 0 -5 4 -8 9 -4
6 3 6 -7 0 -27 -5 -18 -9 -35 -9 -38 0 -3 -4 1 -9 9 -7 10 -15 1 -31 -35 -13
-27 -22 -54 -21 -60 1 -11 -73 -84 -86 -84 -4 0 -20 -12 -34 -27 -33 -35 -231
-135 -275 -139 -18 -2 -46 -9 -61 -17 -46 -24 -77 -31 -68 -17 5 9 4 11 -3 6
-40 -24 -584 -24 -624 0 -12 8 -158 35 -207 39 -51 4 -103 23 -114 41 -9 15
-64 44 -84 44 -7 0 -13 4 -13 9 0 5 -18 16 -40 25 -22 9 -40 21 -40 28 0 7
-23 32 -50 56 -51 44 -85 102 -68 113 11 7 -16 107 -44 162 -10 21 -16 43 -12
49 5 7 3 8 -6 3 -10 -6 -12 -2 -7 15 3 13 2 44 -3 70 -5 26 -11 69 -15 96 -8
68 -15 123 -21 164 -14 97 -23 778 -11 865 4 28 10 73 13 100 3 28 11 53 18
57 7 5 6 8 -4 8 -10 0 -11 3 -4 8 6 4 23 48 38 97 34 113 32 107 39 125 4 8
18 56 33 105 37 129 38 130 78 237 56 149 150 478 152 529 1 25 6 54 11 65 11
19 25 95 29 149 1 17 9 55 17 85 36 125 52 371 32 475 -7 31 -10 67 -8 79 7
35 -54 252 -88 316 -17 33 -56 82 -86 110 l-55 52 53 -5 c30 -3 54 -6 54 -7 0
-1 14 -3 31 -3 17 -1 38 -8 47 -16 10 -7 17 -10 17 -7 0 14 -25 32 -67 49 -41
16 -71 21 -188 32 l-60 6 86 -84 c117 -113 167 -221 184 -392 8 -82 9 -419 2
-475 -3 -25 -9 -67 -13 -95 -20 -158 -73 -354 -160 -600 -96 -275 -102 -293
-98 -298 3 -3 -2 -22 -11 -43 -69 -162 -124 -359 -149 -534 -3 -19 -12 -60
-20 -90 -33 -117 -34 -222 -10 -755 16 -366 51 -563 129 -731 102 -222 240
-325 535 -399 108 -28 153 -31 495 -40 286 -8 279 -8 400 25 224 63 393 167
489 303 61 87 139 284 132 331 -1 11 3 44 10 74 13 54 13 391 0 452 -3 14 -10
59 -15 100 -12 80 -19 126 -26 150 -2 8 -7 42 -10 75 -10 89 -33 234 -40 246
-4 5 -8 22 -11 37 -2 15 -5 34 -7 42 -2 8 -7 38 -11 65 -4 28 -14 70 -21 95
-8 25 -26 98 -41 163 -15 65 -31 120 -35 123 -4 2 -11 26 -15 52 -11 80 -43
221 -54 241 -5 11 -10 33 -10 49 0 31 -13 76 -36 129 -16 36 -18 57 -5 49 5
-4 3 18 -5 46 -8 29 -17 73 -20 98 -3 25 -8 54 -10 65 -19 96 -38 205 -40 230
-1 17 -4 46 -7 65 -36 225 -43 598 -14 724 10 44 20 93 22 110 10 81 18 126
36 187 10 36 19 75 19 87 0 11 6 27 13 34 13 13 70 158 65 163 -2 2 -33 -12
-70 -31z m-73 -153 c-3 -6 -14 -11 -23 -11 -13 0 -13 2 4 14 21 15 30 14 19
-3z m-113 -363 c-7 -7 -12 -8 -12 -2 0 6 3 14 7 17 3 4 9 5 12 2 2 -3 -1 -11
-7 -17z"/>
<path d="M3054 4560 c-5 -5 -34 -16 -64 -24 -32 -8 -44 -15 -30 -15 30 -1 110
28 110 40 0 11 -4 11 -16 -1z"/>
<path d="M3041 4414 c0 -11 3 -14 6 -6 3 7 2 16 -1 19 -3 4 -6 -2 -5 -13z"/>
<path d="M2748 735 c-1 -2 -25 -4 -53 -6 -27 -2 -64 -9 -82 -16 -18 -7 -34 -9
-37 -5 -11 19 -294 -5 -337 -28 -10 -6 -27 -10 -38 -10 -12 0 -21 -5 -21 -12
0 -6 -3 -9 -6 -5 -8 8 -80 -19 -114 -43 -15 -11 -35 -20 -43 -20 -9 0 -17 -4
-19 -8 -1 -4 -24 -20 -50 -35 -62 -36 -109 -77 -102 -88 3 -5 0 -9 -7 -9 -10
0 -10 -3 -2 -11 7 -7 17 -8 25 -3 31 20 77 31 82 20 2 -6 5 -3 5 7 1 10 6 15
11 12 6 -3 10 -1 10 5 0 6 4 9 10 5 5 -3 7 -11 4 -18 -3 -8 4 -13 17 -14 15
-1 18 1 10 11 -8 9 -3 12 17 11 15 -1 39 7 53 17 14 9 29 15 33 11 3 -3 6 2 6
11 0 11 5 16 14 13 7 -3 24 0 38 7 23 12 70 27 93 30 6 1 30 8 55 16 25 7 65
15 90 16 25 1 49 3 53 3 5 1 5 6 1 12 -4 8 -1 8 12 2 11 -5 30 -8 44 -6 14 2
50 5 80 8 30 2 56 8 58 14 2 5 9 8 16 5 8 -3 20 2 29 10 19 20 28 20 21 3 -4
-11 8 -14 48 -14 63 0 114 -7 148 -20 14 -6 56 -13 95 -17 44 -4 72 -12 78
-21 14 -26 100 -63 125 -54 12 5 22 10 22 12 0 6 -77 87 -83 87 -3 0 -32 16
-64 35 -45 26 -71 35 -115 37 -32 2 -58 6 -58 10 0 10 -163 42 -172 33z"/>
</g>
</svg>
